<?xml version="1.0" encoding="utf-8"?>
<!-- Generator: Adobe Illustrator 17.1.0, SVG Export Plug-In . SVG Version: 6.00 Build 0)  -->
<!DOCTYPE svg PUBLIC "-//W3C//DTD SVG 1.1//EN" "http://www.w3.org/Graphics/SVG/1.1/DTD/svg11.dtd">
<svg version="1.1" id="Layer_1" xmlns="http://www.w3.org/2000/svg" xmlns:xlink="http://www.w3.org/1999/xlink" x="0px" y="0px"
	 viewBox="0 0 960 960" enable-background="new 0 0 960 960" xml:space="preserve">
<circle fill="#2674A9" stroke="#FFFFFF" stroke-width="8" stroke-miterlimit="10" cx="480.5" cy="479.9" r="475.1"/>
<circle fill="none" stroke="#FFFFFF" stroke-width="3" stroke-miterlimit="10" cx="480.5" cy="479.9" r="431.1"/>
<rect x="415.1" y="78.7" fill="none" width="130.7" height="66.8"/>
<text transform="matrix(1 0 0 1 460.1328 122.6211)" fill="#FFFFFF" font-family="'Roboto-Medium'" font-size="57.6796">N</text>
<rect x="415.1" y="834.3" fill="none" width="130.7" height="66.8"/>
<text transform="matrix(1 0 0 1 462.7236 878.2236)" fill="#FFFFFF" font-family="'Roboto-Medium'" font-size="57.6796">S</text>
<rect x="49.4" y="421.9" fill="none" width="130.7" height="66.8"/>
<text transform="matrix(1 0 0 1 89.6328 465.8149)" fill="#FFFFFF" font-family="'Roboto-Medium'" font-size="57.6796">W</text>
<rect x="783.7" y="421.9" fill="none" width="130.7" height="66.8"/>
<text transform="matrix(1 0 0 1 833.1074 465.8149)" fill="#FFFFFF" font-family="'Roboto-Medium'" font-size="57.6796">E</text>
<polygon fill="#D82227" points="405.5,448.4 664.9,147.5 553.2,528.8 "/>
<polygon fill="#FFFFFF" points="406.6,446.4 294.9,827.7 554.3,526.8 "/>
<polygon fill="#ED2B24" points="666,145.5 406.6,446.4 480.5,486.6 "/>
</svg>
