<?xml version="1.0" encoding="utf-8"?>
<!-- Generator: Adobe Illustrator 17.1.0, SVG Export Plug-In . SVG Version: 6.00 Build 0)  -->
<!DOCTYPE svg PUBLIC "-//W3C//DTD SVG 1.1//EN" "http://www.w3.org/Graphics/SVG/1.1/DTD/svg11.dtd">
<svg version="1.1" id="Layer_1" xmlns="http://www.w3.org/2000/svg" xmlns:xlink="http://www.w3.org/1999/xlink" x="0px" y="0px"
	 viewBox="0 0 960 960" enable-background="new 0 0 960 960" xml:space="preserve">
<circle fill="#2875AA" stroke="#FFFFFF" stroke-width="8" stroke-miterlimit="10" cx="481" cy="478.5" r="472.1"/>
<circle fill="none" stroke="#FFFFFF" stroke-width="3" stroke-miterlimit="10" cx="481" cy="478.5" r="428.4"/>
<rect x="416" y="79.9" fill="none" width="129.9" height="66.4"/>
<text transform="matrix(1 0 0 1 460.7634 123.536)" fill="#FFFFFF" font-family="'Roboto-Medium'" font-size="57.3127">N</text>
<rect x="416" y="830.7" fill="none" width="129.9" height="66.4"/>
<text transform="matrix(1 0 0 1 463.3376 874.3309)" fill="#FFFFFF" font-family="'Roboto-Medium'" font-size="57.3127">S</text>
<rect x="52.6" y="420.9" fill="none" width="129.9" height="66.4"/>
<text transform="matrix(1 0 0 1 92.6199 464.5458)" fill="#FFFFFF" font-family="'Roboto-Medium'" font-size="57.3127">W</text>
<rect x="782.3" y="420.9" fill="none" width="129.9" height="66.4"/>
<text transform="matrix(1 0 0 1 831.365 464.5458)" fill="#FFFFFF" font-family="'Roboto-Medium'" font-size="57.3127">E</text>
<polygon fill="#D82428" points="408.7,527.1 297.7,148.3 555.4,447.2 "/>
<polygon fill="#FFFFFF" points="407.6,525.1 665.3,824.1 554.3,445.3 "/>
<polygon fill="#ED2F26" points="480.9,485.2 554.3,445.3 296.6,146.3 "/>
</svg>
